<svg width="165" height="200" viewBox="0 0 165 200" fill="none" xmlns="http://www.w3.org/2000/svg">
<rect width="100" height="100" transform="matrix(1 0 0 -1 65 100)" fill="#2C6269"/>
<path fill-rule="evenodd" clip-rule="evenodd" d="M65 200C9.77153 200 -35 155.228 -35 100C-35 44.7715 9.77153 0 65 0C120.228 0 165 44.7715 165 100C165 155.228 120.228 200 65 200ZM65 133C46.7746 133 32 118.225 32 100C32 81.7746 46.7746 67 65 67C83.2254 67 98 81.7746 98 100C98 118.225 83.2254 133 65 133Z" fill="#012F34"/>
<path fill-rule="evenodd" clip-rule="evenodd" d="M65 56H165V60H65V56ZM65 64H165V68H65V64ZM165 72H65V76H165V72ZM65 80H165V84H65V80ZM165 88H65V92H165V88ZM65 96H165V100H65V96Z" fill="#79C8C7"/>
<path fill-rule="evenodd" clip-rule="evenodd" d="M165 100H161V104H165V100ZM154 100H158V104H154V100ZM154 108H158V112H154V108ZM158 116H154V120H158V116ZM154 124H158V128H154V124ZM158 132H154V136H158V132ZM154 140H158V144H154V140ZM151 100H147V104H151V100ZM151 108H147V112H151V108ZM147 116H151V120H147V116ZM151 124H147V128H151V124ZM147 132H151V136H147V132ZM151 140H147V144H151V140ZM165 108H161V112H165V108ZM144 100H140V104H144V100ZM144 108H140V112H144V108ZM140 116H144V120H140V116ZM144 124H140V128H144V124ZM140 132H144V136H140V132ZM144 140H140V144H144V140ZM165 116H161V120H165V116ZM137 100H133V104H137V100ZM137 108H133V112H137V108ZM133 116H137V120H133V116ZM137 124H133V128H137V124ZM133 132H137V136H133V132ZM137 140H133V144H137V140ZM165 124H161V128H165V124ZM130 100H126V104H130V100ZM130 108H126V112H130V108ZM126 116H130V120H126V116ZM130 124H126V128H130V124ZM126 132H130V136H126V132ZM130 140H126V144H130V140ZM165 132H161V136H165V132ZM123 100H119V104H123V100ZM123 108H119V112H123V108ZM119 116H123V120H119V116ZM123 124H119V128H123V124ZM119 132H123V136H119V132ZM123 140H119V144H123V140ZM165 140H161V144H165V140ZM116 100H112V104H116V100ZM116 108H112V112H116V108ZM112 116H116V120H112V116ZM116 124H112V128H116V124ZM112 132H116V136H112V132ZM116 140H112V144H116V140Z" fill="#F67E7E"/>
</svg>
